<?xml version="1.0" encoding="utf-8"?>
<!-- Generator: Adobe Illustrator 28.1.0, SVG Export Plug-In . SVG Version: 6.00 Build 0)  -->
<svg version="1.1" id="Layer_1" xmlns="http://www.w3.org/2000/svg" xmlns:xlink="http://www.w3.org/1999/xlink" x="0px" y="0px"
	 viewBox="0 0 512 512" style="enable-background:new 0 0 512 512;" xml:space="preserve">
<style type="text/css">
	.st0{fill:#333333;}
	.st1{fill:#FFFFFF;}
</style>
<path class="st0" d="M76.8,0h358.4C477.6,0,512,34.4,512,76.8v358.4c0,42.4-34.4,76.8-76.8,76.8H76.8C34.4,512,0,477.6,0,435.2V76.8
	C0,34.4,34.4,0,76.8,0z"/>
<path class="st1" d="M255.7,232.9c-15.2-29.4-56.3-84.3-94.6-111.3c-36.7-25.9-50.7-21.4-59.8-17.3c-10.6,4.8-12.5,21.1-12.5,30.7
	c0,9.6,5.2,78.7,8.7,90.2c11.4,38.1,51.7,51,88.9,46.8c1.9-0.3,3.8-0.6,5.8-0.8c-1.9,0.3-3.9,0.6-5.8,0.8
	c-54.4,8.1-102.9,27.9-39.4,98.5c69.8,72.3,95.7-15.5,109-60c13.3,44.5,28.5,129.1,107.6,60c59.5-60,16.3-90.5-38.1-98.5
	c-1.9-0.2-3.9-0.5-5.8-0.8c2,0.3,3.9,0.5,5.8,0.8c37.2,4.2,77.6-8.7,88.9-46.8c3.4-11.6,8.7-80.6,8.7-90.2c0-9.6-1.9-25.9-12.5-30.7
	c-9.2-4.2-23.1-8.6-59.8,17.3C312,148.6,270.9,203.5,255.7,232.9z"/>
</svg>
